# xmcd CD database file
#
# Track frame offsets:
#	150
#	20790
#	47189
#	73859
#	89849
#	109156
#	134061
#	153399
#	173888
#	194378
#
# Disc length: 2934 seconds
#
# Revision: 0
# Processed by: cddbd v1.5.2PL0 Copyright (c) Steve Scherf et al.
# Submitted via: CDex 1.51
#
DISCID=9a0b740a
DTITLE=Hey Gringo - Not The Same Planet
DYEAR=2017
DGENRE=Blues
TTITLE0=Don't You Say I Can't Have You
TTITLE1=Not The Same Planet
TTITLE2=I Feel So Good
TTITLE3=In My Hands
TTITLE4=No Difference To Me
TTITLE5=Tango With The Devil
TTITLE6=One Of These Days
TTITLE7=What Goes Around Comes Around
TTITLE8=Walk On Water
TTITLE9=Watch Out
EXTD=YEAR: 2017
EXTT0=
EXTT1=
EXTT2=
EXTT3=
EXTT4=
EXTT5=
EXTT6=
EXTT7=
EXTT8=
EXTT9=
PLAYORDER=
